# xmcd CD database file
#
# Track frame offsets:
#	150
#	14175
#	25650
#	37077
#	48627
#	60075
#	74575
#	85725
#	98977
#	109177
#	121952
#	136827
#	147777
#	158627
#	170027
#	186117
#
# Disc length: 2636 seconds
#
# Revision: 2
# Processed by: cddbd v1.5.2PL0 Copyright (c) Steve Scherf et al.
# Submitted via: CDex 1.51
#
DISCID=dd0a4a10
DTITLE=Heintje - Das Beste Von Heintje
DYEAR=1998
DGENRE=Schlager
TTITLE0=Du sollst nicht weinen
TTITLE1=Mama
TTITLE2=Sei doch bitte wieder gut
TTITLE3=Es kann nicht immer nur die Sonne scheinen
TTITLE4=In deinem Schaukelstuhl (du liebe oma)
TTITLE5=Heidschi Bumbeidschi
TTITLE6=Scheiden tut so weh
TTITLE7=Deine Liebe, Deine Treue
TTITLE8=Der schönste Tag in deinem Leben
TTITLE9=Ich bau' Dir ein Schloss
TTITLE10=Mamatschi
TTITLE11=Mein schönstes Lied
TTITLE12=Ich tu alles für Dich
TTITLE13=Wenn wir alle Sonntagskinder wär'n
TTITLE14=Kleine Kinder, Kleine Sorgen
TTITLE15=Letzte Rose in unser'm Garten
EXTD=YEAR: 1998
EXTT0=
EXTT1=
EXTT2=
EXTT3=
EXTT4=
EXTT5=
EXTT6=
EXTT7=
EXTT8=
EXTT9=
EXTT10=
EXTT11=
EXTT12=
EXTT13=
EXTT14=
EXTT15=
PLAYORDER=
